<svg width="232" height="26" viewBox="0 0 232 26" fill="none" xmlns="http://www.w3.org/2000/svg">
<g clip-path="url(#clip0)">
<g clip-path="url(#clip1)">
<path d="M20.4863 22.0041V24.6072C23.5331 23.0826 25.8994 20.3977 27.0035 17.1367H24.5836C23.7364 19.1413 22.2992 20.8381 20.4863 22.0041Z" fill="white"/>
<path d="M17.5742 23.1644C17.5742 23.1644 19.7796 23.2124 22.7162 20.0898V23.1419C22.7162 23.1419 20.8385 24.8556 18.091 25.488L17.5742 23.1644Z" fill="white"/>
<path d="M20.4862 1.36649C20.1502 1.19709 19.8029 1.04463 19.4499 0.903464C17.9759 0.324682 16.372 0 14.6947 0C7.53373 0 1.70554 5.82734 1.70554 12.9873C1.70554 15.3476 2.34088 17.5583 3.44496 19.4668L0 23.9531H2.70796L4.39091 21.7791L4.3655 21.7594L6.16986 19.4922C6.16986 19.4894 6.16704 19.4894 6.16704 19.4866L17.2107 5.21468V23.4167C16.4031 23.6115 15.5616 23.7159 14.6975 23.7159C11.8456 23.7159 9.25338 22.5922 7.33042 20.7684L5.92985 22.5527C8.24249 24.673 11.3175 25.9746 14.6947 25.9746C16.372 25.9746 17.9759 25.6499 19.4499 25.0683V21.8892H19.4697V4.08253V3.38234C19.8226 3.55739 20.1587 3.75785 20.4862 3.96959C22.4431 5.2288 23.9622 7.10631 24.7726 9.32544H27.1559C26.1309 5.84146 23.6827 2.96449 20.4862 1.36649ZM4.9613 17.4933C4.32314 16.124 3.96453 14.5966 3.96453 12.9873C3.96453 7.07243 8.779 2.25866 14.6947 2.25866C15.3244 2.25866 15.94 2.31513 16.5386 2.41959L4.9613 17.4933Z" fill="white"/>
<path d="M41.0493 7.97211C43.6782 7.97211 45.5899 9.45718 46.1829 11.8118H47.9223C47.2446 8.56783 44.5931 6.40234 41.0493 6.40234C36.8928 6.40234 33.541 9.60399 33.541 13.8672C33.541 18.1304 36.8928 21.3547 41.0493 21.3547C44.5903 21.3547 47.2418 19.1694 47.9223 15.9254H46.1829C45.5899 18.2575 43.6811 19.7849 41.0493 19.7849C37.7823 19.7849 35.2381 17.2411 35.2381 13.8672C35.2381 10.4962 37.7851 7.97211 41.0493 7.97211Z" fill="white"/>
<path d="M52.2061 12.8504V11.2382H50.5938V21.0804H52.2061V14.6742C53.0758 13.3162 54.3917 12.5737 56.004 12.5313V11.0039C54.434 11.0067 53.1182 11.6843 52.2061 12.8504Z" fill="white"/>
<path d="M58.9721 6.46875C58.3565 6.46875 57.8906 6.9346 57.8906 7.55008C57.8906 8.14298 58.3565 8.61165 58.9721 8.61165C59.5877 8.61165 60.0762 8.1458 60.0762 7.55008C60.0762 6.9346 59.5877 6.46875 58.9721 6.46875Z" fill="white"/>
<path d="M59.7999 11.2383H58.1875V21.0804H59.7999V11.2383Z" fill="white"/>
<path d="M68.176 11.0078C66.7755 11.0078 65.5867 11.4737 64.7198 12.2811V11.2393H63.1074V25.9997H64.7198V20.0425C65.5895 20.8471 66.7783 21.3158 68.176 21.3158C70.9969 21.3158 73.2446 19.0458 73.2446 16.1632C73.2446 13.2975 70.9969 11.0078 68.176 11.0078ZM67.9642 19.8928C66.671 19.8928 65.5245 19.362 64.7198 18.1762V14.1445C65.5245 12.9559 66.671 12.4279 67.9642 12.4279C70.0425 12.4279 71.6351 14.1248 71.6351 16.1604C71.6351 18.196 70.0425 19.8928 67.9642 19.8928Z" fill="white"/>
<path d="M80.3525 19.8298C78.9519 19.8298 78.2319 19.1296 78.2319 17.4328V12.6162H81.9451V11.2384H78.2319V7.61328H76.6195V11.2384H74.0527V12.6162H76.6195V17.43C76.6195 19.9964 77.7857 21.3318 80.2057 21.3318C80.7986 21.3318 81.4792 21.2471 82.2839 20.9704L82.0496 19.4854C81.5187 19.6802 80.9031 19.8298 80.3525 19.8298Z" fill="white"/>
<path d="M88.4763 10.9844C85.4634 10.9844 83.2383 13.1894 83.2383 16.1595C83.2383 19.1297 85.4662 21.3347 88.4763 21.3347C91.4666 21.3347 93.6946 19.1297 93.6946 16.1595C93.6946 13.1894 91.4666 10.9844 88.4763 10.9844ZM88.4763 19.8496C86.398 19.8496 84.8506 18.2798 84.8506 16.1595C84.8506 14.0392 86.398 12.4694 88.4763 12.4694C90.5348 12.4694 92.0625 14.0392 92.0625 16.1595C92.0596 18.2798 90.532 19.8496 88.4763 19.8496Z" fill="white"/>
<path d="M116.386 12.8504V11.2382H114.773V21.0804H116.386V14.6742C117.256 13.3162 118.571 12.5737 120.184 12.5313V11.0039C118.611 11.0067 117.298 11.6843 116.386 12.8504Z" fill="white"/>
<path d="M126.335 12.4694C127.863 12.4694 129.009 13.3164 129.306 14.6123H130.98C130.599 12.4497 128.71 10.9844 126.335 10.9844C123.345 10.9844 121.182 13.2543 121.182 16.1595C121.182 19.0647 123.345 21.3347 126.335 21.3347C128.71 21.3347 130.599 19.8722 130.98 17.7293H129.306C129.009 19.0224 127.863 19.8496 126.335 19.8496C124.192 19.8496 122.794 18.2177 122.794 16.1595C122.791 14.1239 124.192 12.4694 126.335 12.4694Z" fill="white"/>
<path d="M138.53 10.9829C137.129 10.9829 135.921 11.4714 135.009 12.341V6.01953H133.396V21.0763H135.009V14.1648C135.856 13.0609 137.067 12.468 138.234 12.468C139.973 12.468 141.139 13.5296 141.139 15.5228V21.0792H142.752V15.4381C142.752 12.66 141.032 10.9829 138.53 10.9829Z" fill="white"/>
<path d="M147.31 11.2383H145.697V21.0804H147.31V11.2383Z" fill="white"/>
<path d="M146.482 6.46875C145.866 6.46875 145.4 6.9346 145.4 7.55008C145.4 8.14298 145.866 8.61165 146.482 8.61165C147.097 8.61165 147.586 8.1458 147.586 7.55008C147.586 6.9346 147.097 6.46875 146.482 6.46875Z" fill="white"/>
<path d="M156.152 21.0817H157.83V15.0567H165.169V13.5095H157.83V8.20734H166.058V6.66016H156.152V21.0817Z" fill="white"/>
<path d="M170.046 11.2383H168.434V21.0804H170.046V11.2383Z" fill="white"/>
<path d="M169.218 6.46875C168.603 6.46875 168.137 6.9346 168.137 7.55008C168.137 8.14298 168.603 8.61165 169.218 8.61165C169.834 8.61165 170.322 8.1458 170.322 7.55008C170.322 6.9346 169.834 6.46875 169.218 6.46875Z" fill="white"/>
<path d="M178.489 10.9844C177.088 10.9844 175.88 11.4728 174.968 12.3424V11.2385H173.355V21.0806H174.968V14.1663C175.815 13.0623 177.026 12.4694 178.193 12.4694C179.932 12.4694 181.098 13.531 181.098 15.5243V21.0806H182.711V15.4396C182.708 12.6614 180.991 10.9844 178.489 10.9844Z" fill="white"/>
<path d="M193.378 12.2577C192.509 11.453 191.32 10.9844 189.922 10.9844C187.101 10.9844 184.854 13.2967 184.854 16.1595C184.854 19.045 187.101 21.3347 189.922 21.3347C191.323 21.3347 192.509 20.8688 193.378 20.0614V21.0806H194.991V11.2385H193.378V12.2577ZM193.378 18.1754C192.574 19.364 191.427 19.8496 190.134 19.8496C188.056 19.8496 186.463 18.1951 186.463 16.1595C186.463 14.1239 188.053 12.4694 190.134 12.4694C191.427 12.4694 192.574 12.9579 193.378 14.1437V18.1754Z" fill="white"/>
<path d="M203.177 10.9844C201.776 10.9844 200.567 11.4728 199.655 12.3424V11.2385H198.043V21.0806H199.655V14.1663C200.502 13.0623 201.714 12.4694 202.88 12.4694C204.619 12.4694 205.786 13.531 205.786 15.5243V21.0806H207.398V15.4396C207.395 12.6614 205.678 10.9844 203.177 10.9844Z" fill="white"/>
<path d="M214.692 12.4694C216.22 12.4694 217.366 13.3164 217.663 14.6123H219.337C218.956 12.4497 217.067 10.9844 214.692 10.9844C211.702 10.9844 209.539 13.2543 209.539 16.1595C209.539 19.0647 211.702 21.3347 214.692 21.3347C217.067 21.3347 218.956 19.8722 219.337 17.7293H217.663C217.366 19.0224 216.22 19.8496 214.692 19.8496C212.549 19.8496 211.151 18.2177 211.151 16.1595C211.151 14.1239 212.549 12.4694 214.692 12.4694Z" fill="white"/>
<path d="M226.398 10.9844C223.428 10.9844 221.35 13.2543 221.35 16.1595C221.35 19.0647 223.45 21.3347 226.483 21.3347C228.604 21.3347 230.301 20.3155 230.916 18.6186H229.115C228.691 19.4459 227.737 19.892 226.486 19.892C224.427 19.892 223.177 18.4718 222.985 16.648H231.216C231.532 13.4237 229.561 10.9844 226.398 10.9844ZM223.004 15.5017C223.239 13.7625 224.447 12.3847 226.398 12.3847C228.265 12.3847 229.516 13.5508 229.601 15.5017H223.004Z" fill="white"/>
<path d="M102.059 21.0101L110.44 10.2701V21.0101H111.996V5.75L100.088 21.0101H102.059Z" fill="white"/>
</g>
</g>
<defs>
<clipPath id="clip0">
<rect width="231.247" height="26" fill="white"/>
</clipPath>
<clipPath id="clip1">
<rect width="231.247" height="26" fill="white"/>
</clipPath>
</defs>
</svg>
